Coordinates
version=1
nRows=16
nColumns=63
inDegrees=yes

Units are S.I. units (second, meters, Newtons, ...)
If the header above contains a line with 'inDegrees', this indicates whether rotational values are in degrees (yes) or radians (no).

endheader
time	pelvis_tilt	pelvis_list	pelvis_rotation	pelvis_tx	pelvis_ty	pelvis_tz	hip_flexion_r	hip_adduction_r	hip_rotation_r	knee_angle_r	knee_angle_r_beta	ankle_angle_r	subtalar_angle_r	mtp_angle_r	hip_flexion_l	hip_adduction_l	hip_rotation_l	knee_angle_l	knee_angle_l_beta	ankle_angle_l	subtalar_angle_l	mtp_angle_l	L5_S1_Flex_Ext	L5_S1_Lat_Bending	L5_S1_axial_rotation	L4_L5_Flex_Ext	L4_L5_Lat_Bending	L4_L5_axial_rotation	L3_L4_Flex_Ext	L3_L4_Lat_Bending	L3_L4_axial_rotation	L2_L3_Flex_Ext	L2_L3_Lat_Bending	L2_L3_axial_rotation	L1_L2_Flex_Ext	L1_L2_Lat_Bending	L1_L2_axial_rotation	L1_T12_Flex_Ext	L1_T12_Lat_Bending	L1_T12_axial_rotation	Abs_r3	Abs_r2	Abs_r1	Abs_t1	Abs_t2	neck_flexion	neck_bending	neck_rotation	arm_flex_r	arm_add_r	arm_rot_r	elbow_flex_r	pro_sup_r	wrist_flex_r	wrist_dev_r	arm_flex_l	arm_add_l	arm_rot_l	elbow_flex_l	pro_sup_l	wrist_flex_l	wrist_dev_l
4.600000	0.648049	12.416824	68.576683	0.257576	0.426952	0.933032	-16.908659	-0.546076	-16.959228	6.453808	0.112640	20.248822	12.243978	0.000000	-19.342977	2.212420	-10.574752	1.356040	0.023667	22.556292	2.245152	0.000000	-1.093693	-0.518392	6.701692	-2.031096	-0.689462	7.120548	-1.796827	-1.260419	7.120548	-1.249981	-1.260419	5.863981	-1.015603	-1.057105	5.445125	-0.624936	-0.802990	5.026269	-7.812136	-5.864156	37.272801	0.000000	0.000000	23.200022	13.050809	-44.415971	-24.187824	-13.675704	-31.794642	83.610620	83.356485	-6.191193	22.803224	118.284468	44.959355	150.773889	0.032090	0.396603	-69.948020	-24.752346
4.616667	0.863729	12.500042	68.233727	0.257046	0.427510	0.933519	-16.935136	-0.484526	-16.212495	6.445123	0.112489	20.276442	11.912046	0.000000	-19.462023	2.174588	-11.204428	1.441081	0.025152	22.630461	2.670963	0.000000	-1.089675	-0.475185	6.840711	-2.023636	-0.631995	7.268256	-1.790227	-1.155364	7.268256	-1.245390	-1.155364	5.985622	-1.011872	-0.968996	5.558078	-0.622640	-0.736061	5.130534	-7.783441	-5.375382	38.045984	0.000000	0.000000	22.366858	12.577222	-44.484463	-24.255498	-14.266740	-31.891891	83.088640	82.478831	-5.893129	22.824108	117.343524	45.042865	150.851311	0.032219	0.397289	-69.947824	-24.755223
4.633333	1.143893	12.566748	67.836751	0.256286	0.428222	0.934056	-16.946938	-0.400062	-15.602536	6.484403	0.113174	20.282763	11.795697	0.000000	-19.606782	2.115582	-11.635650	1.489722	0.026001	22.607498	2.733596	0.000000	-1.088101	-0.417432	6.990628	-2.020713	-0.555185	7.427542	-1.787642	-1.014945	7.427542	-1.243591	-1.014945	6.116800	-1.010411	-0.851228	5.679885	-0.621741	-0.646603	5.242971	-7.772199	-4.722079	38.879777	0.000000	0.000000	21.317269	11.982743	-44.549630	-24.319949	-14.955280	-31.946636	82.415402	81.219426	-5.555591	22.798931	116.047921	45.127836	151.231861	0.032433	0.399700	-69.947408	-24.758912
4.650000	1.459584	12.605901	67.397459	0.255356	0.429072	0.934634	-16.927888	-0.302888	-15.026341	6.565150	0.114583	20.231430	11.715740	0.000000	-19.737585	2.035722	-12.153152	1.543978	0.026948	22.561403	2.831859	0.000000	-1.089967	-0.349192	7.142989	-2.024177	-0.464426	7.589426	-1.790706	-0.849026	7.589426	-1.245723	-0.849026	6.250115	-1.012143	-0.712073	5.803679	-0.622807	-0.540899	5.357242	-7.785522	-3.950132	39.727162	0.000000	0.000000	20.127968	11.300474	-44.593792	-24.320905	-15.753600	-31.882741	81.522802	79.778594	-5.216809	22.608203	114.387165	45.191397	151.986663	0.032773	0.404760	-69.946721	-24.762934
4.666667	1.796491	12.591651	66.929174	0.254313	0.430031	0.935208	-16.854688	-0.192121	-14.537727	6.687605	0.116721	20.106179	11.723732	0.000000	-19.824654	1.926804	-12.783907	1.608022	0.028065	22.497119	3.013479	0.000000	-1.092206	-0.271081	7.290784	-2.028335	-0.360537	7.746458	-1.794385	-0.659105	7.746458	-1.248282	-0.659105	6.379436	-1.014222	-0.552788	5.923762	-0.624086	-0.419904	5.468088	-7.801515	-3.066518	40.549153	0.000000	0.000000	18.829621	10.510585	-44.589165	-24.235923	-16.642129	-31.724584	80.418206	78.491305	-4.938079	22.294182	112.329872	45.201214	153.121568	0.033248	0.412659	-69.945778	-24.766396
4.683333	2.131903	12.509625	66.443781	0.253227	0.431068	0.935735	-16.714088	-0.074131	-14.146682	6.843950	0.119449	19.889013	11.810734	0.000000	-19.849551	1.795419	-13.512393	1.680986	0.029339	22.411192	3.271808	0.000000	-1.093109	-0.185317	7.426925	-2.030013	-0.246472	7.891107	-1.795869	-0.450581	7.891107	-1.249315	-0.450581	6.498559	-1.015061	-0.377899	6.034376	-0.624603	-0.287057	5.570193	-7.807970	-2.096348	41.306326	0.000000	0.000000	17.471808	9.595977	-44.481861	-24.037264	-17.606212	-31.461241	79.089502	77.498609	-4.767713	21.812069	109.849639	45.111458	154.577546	0.033883	0.424724	-69.944583	-24.769087
4.700000	2.449648	12.353554	65.954446	0.252153	0.432150	0.936170	-16.501099	0.045014	-13.866652	7.028857	0.122677	19.584434	11.983325	0.000000	-19.802774	1.645210	-14.320068	1.764884	0.030803	22.301847	3.603553	0.000000	-1.091216	-0.094250	7.539259	-2.026498	-0.125352	8.010462	-1.792759	-0.229159	8.010462	-1.247151	-0.229159	6.596851	-1.013304	-0.192194	6.125648	-0.623521	-0.145993	5.654444	-7.794450	-1.066171	41.931096	0.000000	0.000000	16.119745	8.589531	-44.196728	-23.674651	-18.656930	-31.012371	77.506242	76.845173	-4.771114	21.102744	106.931948	44.855818	156.242481	0.034730	0.440638	-69.943263	-24.773353
4.716667	2.740145	12.110032	65.449571	0.251139	0.433217	0.936476	-16.198758	0.161834	-13.663621	7.246309	0.126472	19.220955	12.234061	0.000000	-19.675576	1.482544	-15.192573	1.849632	0.032282	22.164200	3.969667	0.000000	-1.083896	0.001081	7.622362	-2.012902	0.001438	8.098760	-1.780732	0.002628	8.098760	-1.238784	0.002628	6.669567	-1.006505	0.002204	6.193169	-0.619338	0.001674	5.716771	-7.742158	0.012227	42.393290	0.000000	0.000000	14.818486	7.507981	-43.649405	-23.127972	-19.791836	-30.379197	75.669855	76.558289	-4.868335	20.187864	103.586630	44.386512	157.949356	0.035807	0.460110	-69.942021	-24.783137
4.733333	2.993662	11.781956	64.976295	0.250199	0.434222	0.936605	-15.822212	0.285790	-13.557049	7.467883	0.130339	18.821111	12.571081	0.000000	-19.466045	1.298173	-16.083886	1.936637	0.033801	22.018406	4.398526	0.000000	-1.070584	0.098478	7.658531	-1.988181	0.130976	8.137189	-1.758862	0.239440	8.137189	-1.223570	0.239440	6.701214	-0.994144	0.200817	6.222556	-0.611731	0.152543	5.743898	-7.647072	1.114005	42.594451	0.000000	0.000000	13.607700	6.381115	-42.751968	-22.343350	-20.979112	-29.487492	73.541248	76.629042	-5.132301	18.963091	99.844791	43.643970	159.537936	0.037278	0.482520	-69.940902	-24.815153
4.750000	3.196137	11.365413	64.571891	0.249314	0.435133	0.936528	-15.369853	0.422123	-13.549158	7.676288	0.133977	18.403233	12.958854	0.000000	-19.163846	1.092328	-16.939301	2.020742	0.035269	21.862286	4.876391	0.000000	-1.050178	0.196021	7.634708	-1.950286	0.260708	8.111878	-1.725338	0.476605	8.111878	-1.200249	0.476605	6.680370	-0.975195	0.399726	6.203201	-0.600072	0.303636	5.726031	-7.501318	2.217428	42.461957	0.000000	0.000000	12.531828	5.263138	-41.413098	-21.297786	-22.160550	-28.406248	71.125774	77.179804	-5.501507	17.497834	95.747589	42.588801	160.927030	0.039355	0.505320	-69.940115	-24.862576
4.766667	3.363922	10.858982	64.223999	0.248473	0.435921	0.936225	-14.849012	0.582623	-13.593459	7.855127	0.137098	17.991944	13.412805	0.000000	-18.769266	0.855230	-17.768316	2.107544	0.036784	21.734200	5.410132	0.000000	-1.021308	0.295353	7.550356	-1.896672	0.392820	8.022253	-1.677907	0.718121	8.022253	-1.167253	0.718121	6.606562	-0.948387	0.602284	6.134664	-0.583576	0.457502	5.662767	-7.295103	3.341092	41.992815	0.000000	0.000000	11.589822	4.153187	-39.624517	-20.009490	-23.341703	-27.084025	68.435084	77.944055	-5.909442	15.769601	91.337799	41.209076	162.002855	0.042350	0.531645	-69.938531	-24.863536
4.783333	3.468413	10.275438	64.015948	0.247610	0.436595	0.935724	-14.266140	0.758368	-13.787275	7.995819	0.139553	17.594338	13.941463	0.000000	-18.270740	0.593573	-18.503824	2.195609	0.038321	21.630261	6.030662	0.000000	-0.986493	0.391578	7.394823	-1.832016	0.520799	7.856999	-1.620709	0.952083	7.856999	-1.127463	0.952083	6.470470	-0.916057	0.798506	6.008294	-0.563682	0.606554	5.546117	-7.046420	4.429610	41.127786	0.000000	0.000000	10.871017	3.142897	-37.412554	-18.484800	-24.485929	-25.512590	65.522492	78.727219	-6.389346	13.888473	86.683868	39.518044	162.812731	0.046415	0.562366	-69.933498	-24.731401
4.800000	3.498194	9.608275	63.895509	0.246830	0.437120	0.935017	-13.610379	0.932762	-14.010372	8.088274	0.141167	17.218839	14.478829	0.000000	-17.663435	0.332088	-19.180592	2.277298	0.039746	21.551347	6.721202	0.000000	-0.941751	0.482255	7.186262	-1.748925	0.641400	7.635403	-1.547202	1.172555	7.635403	-1.076327	1.172555	6.287979	-0.874510	0.983415	5.838838	-0.538116	0.747013	5.389696	-6.726831	5.455368	39.967831	0.000000	0.000000	10.277857	2.170788	-34.870376	-16.817728	-25.558797	-23.802557	62.494973	79.585024	-6.884495	11.939266	81.849187	37.528025	163.468252	0.051563	0.592525	-69.915012	-24.512281
4.816667	3.447114	8.880610	63.956132	0.246025	0.437504	0.934118	-12.902760	1.100938	-14.408520	8.137454	0.142025	16.867962	15.053338	0.000000	-16.944299	0.069575	-19.663847	2.365406	0.041284	21.500496	7.425635	0.000000	-0.888938	0.564144	6.917036	-1.650846	0.750312	7.349351	-1.460436	1.371661	7.349351	-1.015967	1.371661	6.052407	-0.825468	1.150403	5.620092	-0.507939	0.873860	5.187777	-6.349594	6.381715	38.470481	0.000000	0.000000	9.863049	1.297572	-32.085595	-15.064771	-26.543573	-21.973838	59.474174	80.442296	-7.468296	10.062213	76.917881	35.290908	163.991199	0.057612	0.620343	-69.877659	-24.225473
4.833333	3.308276	8.102735	64.116020	0.245306	0.437749	0.933087	-12.140809	1.240456	-14.869842	8.151176	0.142265	16.523040	15.601496	0.000000	-16.138511	-0.162578	-20.036349	2.431724	0.042442	21.444308	8.124900	0.000000	-0.828168	0.634289	6.612615	-1.537991	0.843605	7.025903	-1.360597	1.542211	7.025903	-0.946513	1.542211	5.786038	-0.769037	1.293443	5.372750	-0.473215	0.982514	4.959461	-5.915521	7.175210	36.777380	0.000000	0.000000	9.629686	0.512665	-29.181428	-13.307613	-27.397143	-20.147772	56.564312	81.294588	-8.107964	8.320117	71.958427	32.873654	164.367385	0.064345	0.654169	-69.822216	-23.949361
4.850000	3.101453	7.308912	64.470705	0.244515	0.437896	0.931951	-11.371811	1.371934	-15.441554	8.114719	0.141629	16.151977	16.004097	0.000000	-15.254362	-0.383773	-20.181725	2.511069	0.043826	21.401301	8.797217	0.000000	-0.762332	0.692917	6.261674	-1.415727	0.921579	6.653029	-1.252436	1.684758	6.653029	-0.871269	1.684758	5.478965	-0.707902	1.412996	5.087610	-0.435597	1.073328	4.696255	-5.445263	7.838412	34.825552	0.000000	0.000000	9.560464	-0.163158	-26.226894	-11.591226	-28.121012	-18.341274	53.873381	81.883296	-8.849345	6.848400	67.042351	30.343048	164.665756	0.071280	0.688950	-69.757918	-23.683808
